<mxfile host="app.diagrams.net" modified="2024-01-12T17:18:06.099Z" agent="Mozilla/5.0 (Macintosh; Intel Mac OS X 10_15_7) AppleWebKit/537.36 (KHTML, like Gecko) Chrome/120.0.0.0 Safari/537.36" etag="zckD14YFM7XKnqx3RTEN" version="22.1.18" type="device">
  <diagram name="Page-1" id="EQvnwmG1Y4y3t1T5L9dF">
    <mxGraphModel dx="784" dy="655" grid="1" gridSize="10" guides="1" tooltips="1" connect="1" arrows="1" fold="1" page="1" pageScale="1" pageWidth="850" pageHeight="1100" math="0" shadow="0">
      <root>
        <mxCell id="0" />
        <mxCell id="1" parent="0" />
        <mxCell id="9_uu6jw-6xjPogpNQrbh-2" value="" style="ellipse;whiteSpace=wrap;html=1;fillColor=#f5f5f5;strokeColor=#00CC00;fontColor=#333333;strokeWidth=2;" parent="1" vertex="1">
          <mxGeometry x="81" y="210" width="480" height="410" as="geometry" />
        </mxCell>
        <mxCell id="iVDocXxHOifkbJ-Q9HDR-1" value="Single&amp;nbsp;AMM&lt;br&gt;Protocols" style="ellipse;whiteSpace=wrap;html=1;aspect=fixed;fillColor=#dae8fc;strokeColor=#6c8ebf;" parent="1" vertex="1">
          <mxGeometry x="363.75" y="60" width="115" height="115" as="geometry" />
        </mxCell>
        <mxCell id="iVDocXxHOifkbJ-Q9HDR-2" value="Network AMM&lt;br&gt;Protocols&lt;br&gt;(Liquidity Trees)" style="ellipse;whiteSpace=wrap;html=1;aspect=fixed;fillColor=#d5e8d4;strokeColor=#82b366;" parent="1" vertex="1">
          <mxGeometry x="260" y="220" width="110" height="110" as="geometry" />
        </mxCell>
        <mxCell id="iVDocXxHOifkbJ-Q9HDR-3" value="Liquidity Management&lt;br&gt;(Single AMMs)" style="ellipse;whiteSpace=wrap;html=1;aspect=fixed;fillColor=#dae8fc;strokeColor=#6c8ebf;" parent="1" vertex="1">
          <mxGeometry x="523.5" y="210" width="110" height="110" as="geometry" />
        </mxCell>
        <mxCell id="iVDocXxHOifkbJ-Q9HDR-5" value="DETF" style="ellipse;whiteSpace=wrap;html=1;aspect=fixed;fillColor=#d5e8d4;strokeColor=#82b366;" parent="1" vertex="1">
          <mxGeometry x="426" y="429.5" width="97.5" height="97.5" as="geometry" />
        </mxCell>
        <mxCell id="iVDocXxHOifkbJ-Q9HDR-6" value="" style="endArrow=classic;html=1;rounded=0;exitX=0;exitY=1;exitDx=0;exitDy=0;entryX=0.5;entryY=0;entryDx=0;entryDy=0;" parent="1" source="iVDocXxHOifkbJ-Q9HDR-1" target="iVDocXxHOifkbJ-Q9HDR-2" edge="1">
          <mxGeometry width="50" height="50" relative="1" as="geometry">
            <mxPoint x="240" y="130" as="sourcePoint" />
            <mxPoint x="210" y="230" as="targetPoint" />
          </mxGeometry>
        </mxCell>
        <mxCell id="iVDocXxHOifkbJ-Q9HDR-7" value="" style="endArrow=classic;html=1;rounded=0;entryX=0;entryY=0;entryDx=0;entryDy=0;exitX=1;exitY=1;exitDx=0;exitDy=0;" parent="1" source="iVDocXxHOifkbJ-Q9HDR-2" target="iVDocXxHOifkbJ-Q9HDR-5" edge="1">
          <mxGeometry width="50" height="50" relative="1" as="geometry">
            <mxPoint x="110" y="310" as="sourcePoint" />
            <mxPoint x="160" y="260" as="targetPoint" />
          </mxGeometry>
        </mxCell>
        <mxCell id="iVDocXxHOifkbJ-Q9HDR-9" value="" style="endArrow=classic;html=1;rounded=0;exitX=1;exitY=1;exitDx=0;exitDy=0;entryX=0;entryY=0;entryDx=0;entryDy=0;" parent="1" source="iVDocXxHOifkbJ-Q9HDR-1" target="iVDocXxHOifkbJ-Q9HDR-3" edge="1">
          <mxGeometry width="50" height="50" relative="1" as="geometry">
            <mxPoint x="560" y="150" as="sourcePoint" />
            <mxPoint x="610" y="100" as="targetPoint" />
          </mxGeometry>
        </mxCell>
        <mxCell id="iVDocXxHOifkbJ-Q9HDR-16" value="&lt;ul&gt;&lt;li&gt;&lt;b&gt;Yield Optimization&lt;/b&gt;&lt;/li&gt;&lt;li&gt;&lt;b&gt;Active Liquidity Management&lt;/b&gt;&lt;/li&gt;&lt;li&gt;&lt;b&gt;Synthetic Asset Issuer&lt;/b&gt;&lt;/li&gt;&lt;li&gt;&lt;b&gt;Automated Self Balancing Portfolio manager&lt;/b&gt;&lt;/li&gt;&lt;li&gt;&lt;b&gt;Collateralized Assets earning yield&lt;/b&gt;&lt;/li&gt;&lt;/ul&gt;" style="text;html=1;strokeColor=none;fillColor=none;align=left;verticalAlign=middle;whiteSpace=wrap;rounded=0;" parent="1" vertex="1">
          <mxGeometry x="600" y="60" width="310" height="100" as="geometry" />
        </mxCell>
        <mxCell id="iVDocXxHOifkbJ-Q9HDR-17" value="" style="endArrow=oval;html=1;rounded=0;entryX=1;entryY=0;entryDx=0;entryDy=0;endFill=1;exitX=0.25;exitY=1;exitDx=0;exitDy=0;" parent="1" source="iVDocXxHOifkbJ-Q9HDR-16" target="iVDocXxHOifkbJ-Q9HDR-3" edge="1">
          <mxGeometry width="50" height="50" relative="1" as="geometry">
            <mxPoint x="710" y="70" as="sourcePoint" />
            <mxPoint x="580" y="70" as="targetPoint" />
          </mxGeometry>
        </mxCell>
        <mxCell id="9_uu6jw-6xjPogpNQrbh-3" value="" style="endArrow=oval;html=1;rounded=0;endFill=1;" parent="1" target="9_uu6jw-6xjPogpNQrbh-2" edge="1">
          <mxGeometry width="50" height="50" relative="1" as="geometry">
            <mxPoint x="140" y="170" as="sourcePoint" />
            <mxPoint x="200" y="130" as="targetPoint" />
          </mxGeometry>
        </mxCell>
        <mxCell id="9_uu6jw-6xjPogpNQrbh-4" value="What Pachira is doing to DeFi" style="text;html=1;strokeColor=none;fillColor=none;align=center;verticalAlign=middle;whiteSpace=wrap;rounded=0;fontStyle=1" parent="1" vertex="1">
          <mxGeometry x="81" y="140" width="100" height="20" as="geometry" />
        </mxCell>
      </root>
    </mxGraphModel>
  </diagram>
</mxfile>
